<?xml version="1.0" encoding="UTF-8"?>
<svg id="Lager_1" xmlns="http://www.w3.org/2000/svg" viewBox="0 0 485.87 500">
  <defs>
    <style>.cls-1{fill:#BCA9F1;}</style>
  </defs>
  <path class="cls-1" d="M299.45,319.76c5.2,8.1,15.41,18.59,34.49,22.62,5.46,1.16,11.29,1.68,17.36,1.68,51.87,0,121.49-38.22,134.57-46.83l-26.54-40.28c-24.72,16.29-88.88,43.85-115.41,38.24-1.9-.4-3.04-.9-3.57-1.24-3.26-12.88,6.24-72.26,65.3-212.65l-44.46-18.71c-89.82,213.52-70.15,244.11-61.74,257.17Z" />
  <path class="cls-1" d="M279.6,434.15c-52.57,21.69-96.76,23.09-131.34,4.15-91.75-50.24-45.18-264.94-7.74-371.45l-45.51-16c-5.32,15.12-32.41,95.03-43.6,183.02-16.28,128.04,8.51,211.05,73.67,246.73,25.11,13.75,51.48,19.11,77.4,19.11,89.91-.01,174.07-64.64,178.59-68.17l-29.68-38.03c-.3,.23-30.38,23.53-71.8,40.62Z" />
  <path class="cls-1" d="M180.24,251.44c13.18-93.84,58.15-212.53,66.45-232.01L202.32,.51c-10.52,24.66-56.01,145.65-69.85,244.22l47.77,6.71Z" />
  <path class="cls-1" d="M255.25,278.14C276.71,150.1,335.96,21.47,336.55,20.21L292.88-.27c-.62,1.32-62.68,136.06-85.2,270.44l47.57,7.97Z" />
</svg>